<?xml version="1.0" encoding="UTF-8" standalone="no"?>
<svg
   xmlns:svg="http://www.w3.org/2000/svg"
   xmlns="http://www.w3.org/2000/svg"
   id="svg-mahjong"
   version="1.1"
   viewBox="0 0 1136 176"
   height="176"
   width="1136">
  <g id="buttons" stroke="none">
   <rect y="0" x="0" height="64" width="64" id="button-a" fill="#cccccc" />
   <rect y="0" x="80" height="64" width="64" id="button-b" fill="#cccccc" />
   <rect y="0" x="160" height="64" width="64" id="button-c" fill="#cccccc" />
   <rect y="0" x="240" height="64" width="64" id="button-d" fill="#cccccc" />
   <rect y="0" x="320" height="64" width="64" id="button-e" fill="#cccccc" />
   <rect y="0" x="400" height="64" width="64" id="button-f" fill="#cccccc" />
   <rect y="0" x="480" height="64" width="64" id="button-g" fill="#cccccc" />
   <rect y="0" x="560" height="64" width="64" id="button-h" fill="#cccccc" />
   <rect y="0" x="640" height="64" width="64" id="button-i" fill="#cccccc" />
   <rect y="0" x="720" height="64" width="64" id="button-j" fill="#cccccc" />
   <rect y="0" x="800" height="64" width="64" id="button-k" fill="#cccccc" />
   <rect y="0" x="880" height="64" width="64" id="button-l" fill="#cccccc" />
   <rect y="0" x="960" height="64" width="64" id="button-m" fill="#cccccc" />
   <rect y="0" x="1072" height="64" width="64" id="button-n" fill="#ff3333" />
   <rect y="112" x="0" height="64" width="64" id="button-flipflop" fill="#ffff33" />
   <rect y="112" x="80" height="64" width="64" id="button-start" fill="#ffff33" />
   <rect y="112" x="160" height="64" width="64" id="button-bet" fill="#ffff33" />
   <rect y="112" x="280" height="64" width="64" id="button-take" fill="#ff66cc" />
   <rect y="112" x="360" height="64" width="64" id="button-dup" fill="#ff66cc" />
   <rect y="112" x="440" height="64" width="64" id="button-big" fill="#ff66cc" />
   <rect y="112" x="520" height="64" width="64" id="button-small" fill="#ff66cc" />
   <rect y="112" x="640" height="64" width="64" id="button-last" fill="#33ff99" />
   <rect y="112" x="720" height="64" width="64" id="button-kan" fill="#33ff99" />
   <rect y="112" x="800" height="64" width="64" id="button-pon" fill="#33ff99" />
   <rect y="112" x="880" height="64" width="64" id="button-chi" fill="#33ff99" />
   <rect y="112" x="960" height="64" width="64" id="button-reach" fill="#33ff99" />
   <rect y="112" x="1072" height="64" width="64" id="button-ron" fill="#ff9933" />
  </g>
  <g id="labels"
     font-family="sans-serif" font-style="normal" font-variant="normal" font-weight="bold" font-stretch="normal"
     text-anchor="middle"
     fill="#000000" stroke="none"
     style="text-align:center;line-height:1.25;letter-spacing:0px;word-spacing:0px">
    <text id="label-a"
       y="47.5104" x="32"
       style="font-size:42.66666794px"
       xml:space="preserve"><tspan
         y="47.5104" x="32"
         id="tspan-a0">A</tspan></text>
    <text id="label-b"
       y="47.5104" x="112"
       style="font-size:42.66666794px"
       xml:space="preserve"><tspan
         y="47.5104" x="112"
         id="tspan-b0">B</tspan></text>
    <text id="label-c"
       y="47.5104" x="192"
       style="font-size:42.66666794px"
       xml:space="preserve"><tspan
         y="47.5104" x="192"
         id="tspan-c0">C</tspan></text>
    <text id="label-d"
       y="47.5104" x="272"
       style="font-size:42.66666794px"
       xml:space="preserve"><tspan
         y="47.5104" x="272"
         id="tspan-d0">D</tspan></text>
    <text id="label-e"
       y="47.5104" x="352"
       style="font-size:42.66666794px"
       xml:space="preserve"><tspan
         y="47.5104" x="352"
         id="tspan-e0">E</tspan></text>
    <text id="label-f"
       y="47.5104" x="432"
       style="font-size:42.66666794px"
       xml:space="preserve"><tspan
         y="47.5104" x="432"
         id="tspan-f0">F</tspan></text>
    <text id="label-g"
       y="47.5104" x="512"
       style="font-size:42.66666794px"
       xml:space="preserve"><tspan
         y="47.5104" x="512"
         id="tspan-g0">G</tspan></text>
    <text id="label-h"
       y="47.5104" x="592"
       style="font-size:42.66666794px"
       xml:space="preserve"><tspan
         y="47.5104" x="592"
         id="tspan-h0">H</tspan></text>
    <text id="label-i"
       y="47.5104" x="672"
       style="font-size:42.66666794px"
       xml:space="preserve"><tspan
         y="47.5104" x="672"
         id="tspan-i0">I</tspan></text>
    <text id="label-j"
       y="47.5104" x="752"
       style="font-size:42.66666794px"
       xml:space="preserve"><tspan
         y="47.5104" x="752"
         id="tspan-j0">J</tspan></text>
    <text id="label-k"
       y="47.5104" x="832"
       style="font-size:42.66666794px"
       xml:space="preserve"><tspan
         y="47.5104" x="832"
         id="tspan-k0">K</tspan></text>
    <text id="label-l"
       y="47.5104" x="912"
       style="font-size:42.66666794px"
       xml:space="preserve"><tspan
         y="47.5104" x="912"
         id="tspan-l0">L</tspan></text>
    <text id="label-m"
       y="47.5104" x="992"
       style="font-size:42.66666794px"
       xml:space="preserve"><tspan
         y="47.5104" x="992"
         id="tspan-m0">M</tspan></text>
    <text id="label-n"
       y="47.5104" x="1104"
       style="font-size:42.66666794px"
       xml:space="preserve"><tspan
         y="47.5104" x="1104"
         id="tspan-n0">N</tspan></text>
    <text id="label-flipflop"
       y="140.4128" x="32"
       style="font-size:13.33333302px"
       xml:space="preserve"><tspan
         y="140.4128" x="32"
         id="tspan-flipflop0">FLIP</tspan><tspan
         y="157.17379" x="32"
         id="tspan-flipflop1">FLOP</tspan></text>
    <text id="label-start"
       y="148.84703" x="112"
       style="font-size:13.33333302px"
       xml:space="preserve"><tspan
         y="148.84703" x="112"
         id="tspan-start0">START</tspan></text>
    <text id="label-bet"
       y="148.84703" x="192"
       style="font-size:13.33333302px"
       xml:space="preserve"><tspan
         y="148.84703" x="192"
         id="tspan-bet0">BET</tspan></text>
    <text id="label-take"
       y="140.4128" x="312"
       style="font-size:13.33333302px"
       xml:space="preserve"><tspan
         y="140.4128" x="312"
         id="tspan-take0">TAKE</tspan><tspan
         y="157.17379" x="312"
         id="tspan-take1">SCORE</tspan></text>
    <text id="label-dup"
       y="140.4128" x="392"
       style="font-size:13.33333302px"
       xml:space="preserve"><tspan
         y="140.4128" x="392"
         id="tspan-dup0">DOUBLE</tspan><tspan
         y="157.17379" x="392"
         id="tspan-dup1">UP</tspan></text>
    <text id="label-big"
       y="148.84703" x="472"
       style="font-size:13.33333302px"
       xml:space="preserve"><tspan
         y="148.84703" x="472"
         id="tspan-big0">BIG</tspan></text>
    <text id="label-small"
       y="148.84703" x="552"
       style="font-size:13.33333302px"
       xml:space="preserve"><tspan
         y="148.84703" x="552"
         id="tspan-small0">SMALL</tspan></text>
    <text id="label-last"
       y="140.4128" x="672"
       style="font-size:13.33333302px"
       xml:space="preserve"><tspan
         y="140.4128" x="672"
         id="tspan-last0">LAST</tspan><tspan
         y="157.17379" x="672"
         id="tspan-last1">CHANCE</tspan></text>
    <text id="label-kan"
       y="148.84703" x="752"
       style="font-size:13.33333302px"
       xml:space="preserve"><tspan
         y="148.84703" x="752"
         id="tspan-kan0">KAN</tspan></text>
    <text id="label-pon"
       y="148.84703" x="832"
       style="font-size:13.33333302px"
       xml:space="preserve"><tspan
         y="148.84703" x="832"
         id="tspan-pon0">PON</tspan></text>
    <text id="label-chi"
       y="148.84703" x="912"
       style="font-size:13.33333302px"
       xml:space="preserve"><tspan
         y="148.84703" x="912"
         id="tspan-chi0">CHI</tspan></text>
    <text id="label-reach"
       y="148.84703" x="992"
       style="font-size:13.33333302px"
       xml:space="preserve"><tspan
         y="148.84703" x="992"
         id="tspan-reach0">REACH</tspan></text>
    <text id="label-ron"
       y="148.84703" x="1104"
       style="font-size:13.33333302px"
       xml:space="preserve"><tspan
         y="148.84703" x="1104"
         id="tspan-ron0">RON</tspan></text>
  </g>
</svg>
