<?xml version="1.0" encoding="UTF-8" standalone="no"?>
<!DOCTYPE svg PUBLIC "-//W3C//DTD SVG 1.1//EN" "http://www.w3.org/Graphics/SVG/1.1/DTD/svg11.dtd">
<!-- license:CC0-1.0 -->
<svg xmlns="http://www.w3.org/2000/svg" version="1.1" width="3420" height="5720" viewBox="0 0 3420 5720">
  <path fill="#ffffff" d="M2519 963 c-20 13 -46 47 -63 81 -28 53 -31 69 -37 199 -7 155 -20 211 -75 319 -50 99 -68 199 -54 301 23 167 52 217 126 217 37 0 47 -5 77 -40 53 -63 74 -151 97 -410 5 -63 16 -167 24 -230 42 -326 45 -374 21 -419 -24 -47 -63 -54 -116 -18z" />
</svg>
