<?xml version="1.0" encoding="UTF-8" standalone="no"?>
<!DOCTYPE svg PUBLIC "-//W3C//DTD SVG 1.1//EN" "http://www.w3.org/Graphics/SVG/1.1/DTD/svg11.dtd">
<!-- license:CC0-1.0 -->
<svg xmlns="http://www.w3.org/2000/svg" version="1.1" width="3420" height="5720" viewBox="0 0 3420 5720">
  <path fill="#ffffff" d="M695 2447 c-45 23 -76 54 -91 90 -8 18 -18 101 -24 190 -18 298 -21 328 -52 516 -26 164 -29 194 -18 235 23 91 68 107 130 44 46 -45 59 -86 71 -217 5 -55 13 -143 18 -195 11 -120 37 -199 101 -302 48 -78 50 -85 50 -153 0 -95 -15 -143 -60 -187 -42 -42 -75 -48 -125 -21z" />
</svg>
