<?xml version="1.0" encoding="UTF-8" standalone="no"?>
<!DOCTYPE svg PUBLIC "-//W3C//DTD SVG 1.1//EN" "http://www.w3.org/Graphics/SVG/1.1/DTD/svg11.dtd">
<svg xmlns="http://www.w3.org/2000/svg" version="1.1" width="3420" height="5720" viewBox="0 0 3420 5720">
  <path fill="#ffffff" d="M1701 2579 c-24 24 -40 122 -44 261 -2 95 1 112 27 178 15 41 44 94 63 119 19 25 57 92 84 149 58 121 94 164 137 164 38 0 78 -32 90 -73 19 -60 22 -181 7 -238 -20 -77 -116 -277 -180 -376 -30 -46 -66 -106 -80 -133 -35 -69 -69 -86 -104 -51z" />
</svg>
