<?xml version="1.0" encoding="UTF-8" standalone="no"?>
<!DOCTYPE svg PUBLIC "-//W3C//DTD SVG 1.1//EN" "http://www.w3.org/Graphics/SVG/1.1/DTD/svg11.dtd">
<svg xmlns="http://www.w3.org/2000/svg" version="1.1" width="3420" height="5720" viewBox="0 0 3420 5720">
  <path fill="#ffffff" d="M1108 1087 c-32 36 -42 71 -50 163 -5 52 -11 122 -14 156 -6 55 -1 75 41 200 53 152 59 165 87 183 16 10 24 9 44 -4 31 -20 43 -51 55 -135 5 -36 17 -97 26 -137 14 -63 15 -81 3 -145 -37 -205 -43 -222 -88 -271 -30 -32 -80 -37 -104 -10z" />
</svg>
