<?xml version="1.0" encoding="UTF-8" standalone="no"?>
<!DOCTYPE svg PUBLIC "-//W3C//DTD SVG 1.1//EN" "http://www.w3.org/Graphics/SVG/1.1/DTD/svg11.dtd">
<!-- license:CC0-1.0 -->
<svg xmlns="http://www.w3.org/2000/svg" version="1.1" width="3420" height="5720" viewBox="0 0 3420 5720">
  <path fill="#ffffff" d="M1550 3539 c-14 5 -57 24 -97 44 -107 54 -134 56 -218 12 -79 -42 -105 -41 -170 3 -35 23 -53 28 -145 33 -131 8 -181 24 -194 62 -14 39 9 78 54 94 49 17 1278 18 1315 1 51 -23 42 -87 -18 -132 -21 -15 -48 -21 -115 -26 -77 -4 -94 -9 -140 -38 -85 -55 -195 -76 -272 -53z" />
</svg>
