<?xml version="1.0" encoding="UTF-8" standalone="no"?>
<!DOCTYPE svg PUBLIC "-//W3C//DTD SVG 1.1//EN" "http://www.w3.org/Graphics/SVG/1.1/DTD/svg11.dtd">
<svg xmlns="http://www.w3.org/2000/svg" version="1.1" width="3420" height="5720" viewBox="0 0 3420 5720">
  <path fill="#ffffff" d="M2279 2467 c-56 50 -69 80 -80 186 -6 51 -16 127 -24 169 -14 83 -10 123 25 213 36 95 44 146 31 203 -14 66 -14 205 -1 254 12 41 70 98 100 98 52 0 75 -100 100 -435 6 -77 22 -241 36 -364 28 -255 27 -268 -37 -325 -54 -49 -94 -49 -150 1z" />
</svg>
