<?xml version="1.0" encoding="UTF-8" standalone="no"?>
<!DOCTYPE svg PUBLIC "-//W3C//DTD SVG 1.1//EN" "http://www.w3.org/Graphics/SVG/1.1/DTD/svg11.dtd">
<!-- license:CC0-1.0 -->
<svg xmlns="http://www.w3.org/2000/svg" version="1.1" width="3420" height="5720" viewBox="0 0 3420 5720">
  <path fill="#ffffff" d="M2144 1089 c-59 43 -88 78 -135 161 -23 41 -75 112 -115 156 -108 119 -132 188 -136 386 -3 107 -1 118 17 132 11 9 28 16 37 16 25 0 92 -63 154 -145 29 -39 100 -129 158 -200 58 -72 113 -144 121 -162 19 -40 32 -106 41 -214 5 -68 3 -91 -9 -116 -28 -52 -74 -57 -133 -14z" />
</svg>
