<?xml version="1.0" encoding="UTF-8" standalone="no"?>
<!DOCTYPE svg PUBLIC "-//W3C//DTD SVG 1.1//EN" "http://www.w3.org/Graphics/SVG/1.1/DTD/svg11.dtd">
<svg xmlns="http://www.w3.org/2000/svg" version="1.1" width="3420" height="5720" viewBox="0 0 3420 5720">
  <path fill="#ffffff" d="M1053 705 c-43 19 -57 47 -43 89 23 70 87 106 189 106 38 0 70 8 106 25 79 39 111 41 183 11 80 -34 119 -33 205 6 68 31 78 33 192 33 116 0 123 -1 195 -35 67 -31 87 -35 182 -40 101 -5 108 -7 137 -34 40 -38 50 -89 25 -118 -11 -11 -37 -29 -59 -39 -37 -17 -79 -19 -660 -18 -505 0 -626 2 -652 14z" />
</svg>
