<?xml version="1.0" encoding="UTF-8" standalone="no"?>
<!DOCTYPE svg PUBLIC "-//W3C//DTD SVG 1.1//EN" "http://www.w3.org/Graphics/SVG/1.1/DTD/svg11.dtd">
<svg xmlns="http://www.w3.org/2000/svg" version="1.1" width="3420" height="5720" viewBox="0 0 3420 5720">
  <path fill="#ffffff" d="M1372 2456 c-40 28 -52 66 -52 166 0 92 -27 323 -55 468 -21 108 -19 246 3 290 21 44 59 65 96 56 47 -12 123 -92 146 -152 28 -77 28 -203 -1 -281 -21 -55 -22 -62 -10 -218 6 -88 14 -178 16 -201 6 -54 -11 -110 -38 -129 -28 -19 -76 -19 -105 1z" />
</svg>
